<?xml version="1.0" standalone="no"?>
<!DOCTYPE svg PUBLIC "-//W3C//DTD SVG 20010904//EN"
 "http://www.w3.org/TR/2001/REC-SVG-20010904/DTD/svg10.dtd">
<svg version="1.0" xmlns="http://www.w3.org/2000/svg"
 width="600.000000pt" height="600.000000pt" viewBox="0 0 600.000000 600.000000"
 preserveAspectRatio="xMidYMid meet">
<metadata>
Created by potrace 1.11, written by Peter Selinger 2001-2013
</metadata>
<g transform="translate(0.000000,600.000000) scale(0.100000,-0.100000)"
fill="#000000" stroke="none">
<path d="M4817 5144 c-3 -4 -26 -8 -49 -10 -58 -5 -246 -67 -331 -109 -140
-69 -270 -177 -312 -259 -11 -21 -28 -52 -37 -70 -16 -30 -54 -118 -78 -183
-10 -26 -17 -32 -34 -29 -22 4 -68 20 -101 36 -90 41 -192 73 -275 86 -14 2
-45 9 -70 14 -59 14 -87 19 -130 26 -19 3 -46 7 -60 10 -25 5 -48 8 -180 20
-152 15 -704 3 -765 -16 -16 -5 -39 -9 -50 -8 -78 4 -427 -87 -480 -126 -17
-12 -22 -7 -57 44 -21 32 -49 65 -63 74 -13 9 -49 37 -81 62 -31 25 -86 62
-123 81 -36 19 -73 41 -81 48 -23 20 -138 75 -200 97 -131 45 -297 62 -459 45
-86 -9 -115 -19 -218 -79 -124 -70 -193 -128 -245 -204 -15 -21 -39 -52 -54
-69 -50 -57 -81 -110 -112 -190 -29 -78 -53 -155 -57 -185 -1 -8 -5 -35 -10
-60 -15 -84 -16 -95 -16 -221 0 -69 5 -146 11 -170 7 -24 13 -48 15 -54 37
-166 184 -354 335 -430 38 -19 71 -35 72 -34 2 0 16 -3 31 -6 23 -6 27 -12 22
-29 -3 -11 -7 -28 -9 -36 -2 -8 -11 -33 -19 -55 -22 -63 -48 -143 -51 -157 -1
-7 -5 -19 -10 -26 -4 -7 -5 -16 -2 -19 3 -3 1 -12 -5 -20 -6 -7 -9 -13 -6 -13
3 0 -5 -39 -18 -87 -13 -49 -26 -106 -30 -128 -3 -23 -8 -52 -10 -65 -27 -130
-23 -423 6 -534 6 -22 12 -49 14 -60 1 -12 5 -28 8 -36 4 -8 18 -67 31 -130
14 -63 30 -128 37 -145 7 -16 13 -36 15 -44 1 -7 26 -61 56 -119 80 -161 216
-296 428 -429 172 -108 209 -126 450 -214 42 -15 103 -30 135 -34 67 -8 100
-12 148 -21 125 -23 203 -26 699 -27 640 -2 1097 8 1263 27 22 3 67 7 100 11
57 6 97 14 175 35 19 5 73 16 120 25 47 9 155 39 240 66 85 28 176 57 201 65
49 16 276 148 374 219 117 85 240 218 307 334 54 92 124 253 133 306 2 11 11
40 21 65 9 25 17 62 17 82 1 21 4 38 7 38 10 0 16 520 8 580 -4 25 -10 65 -13
90 -3 25 -9 52 -12 60 -3 8 -7 28 -10 45 -3 16 -11 42 -19 57 -8 16 -12 28 -9
28 3 0 -3 17 -14 38 -10 20 -19 39 -18 42 1 12 -28 88 -45 118 -10 18 -18 45
-18 60 0 24 9 30 83 61 72 31 155 75 196 106 34 25 146 144 171 180 33 48 91
162 118 230 38 97 51 185 53 365 l3 175 -34 100 c-18 55 -60 153 -93 219 -48
95 -71 130 -122 180 -154 150 -222 195 -360 241 -11 3 -21 6 -22 6 -2 0 -17 5
-35 10 -18 6 -46 12 -63 15 -16 2 -41 7 -55 10 -39 9 -265 15 -273 8z"/>
</g>
</svg>
