<?xml version="1.0" standalone="no"?>
<!DOCTYPE svg PUBLIC "-//W3C//DTD SVG 20010904//EN"
 "http://www.w3.org/TR/2001/REC-SVG-20010904/DTD/svg10.dtd">
<svg version="1.0" xmlns="http://www.w3.org/2000/svg"
 width="900.000000pt" height="900.000000pt" viewBox="0 0 900.000000 900.000000"
 preserveAspectRatio="xMidYMid meet">
<metadata>
Created by potrace 1.11, written by Peter Selinger 2001-2013
</metadata>
<g transform="translate(0.000000,900.000000) scale(0.100000,-0.100000)"
fill="#000000" stroke="none">
<path d="M5475 8520 c-57 -7 -173 -53 -201 -78 -11 -10 -32 -27 -48 -40 -71
-55 -157 -143 -281 -287 -95 -111 -134 -144 -225 -187 -70 -34 -102 -42 -180
-50 -128 -13 -141 -14 -167 -5 -19 7 -22 5 -16 -9 5 -13 3 -15 -13 -7 -10 6
-49 8 -86 6 -38 -2 -68 1 -68 5 0 5 -18 15 -39 22 -42 14 -95 59 -181 158 -30
34 -59 62 -65 62 -6 0 -16 9 -23 20 -7 11 -21 20 -33 20 -16 0 -19 4 -14 20 5
16 2 20 -15 20 -11 0 -31 11 -44 25 -13 14 -27 25 -33 25 -5 0 -25 15 -45 34
-20 19 -56 40 -80 47 -24 7 -54 20 -68 29 -58 39 -131 49 -213 31 -23 -6 -58
-13 -78 -16 -31 -5 -36 -9 -32 -26 5 -17 2 -19 -21 -13 -16 4 -32 1 -42 -7 -9
-8 -23 -14 -32 -14 -8 0 -18 -7 -22 -15 -22 -48 -29 -55 -52 -55 -28 0 -61
-23 -52 -36 3 -5 1 -9 -5 -9 -12 0 -101 -91 -101 -102 0 -7 -33 -45 -115 -132
-46 -49 -89 -110 -117 -168 -16 -35 -41 -75 -54 -91 -13 -16 -24 -35 -24 -44
0 -9 -6 -13 -15 -9 -8 3 -15 1 -15 -5 0 -5 -11 -22 -24 -36 -14 -14 -32 -47
-42 -72 -10 -25 -34 -63 -55 -84 -39 -40 -99 -149 -99 -180 0 -9 -4 -17 -10
-17 -5 0 -10 -5 -10 -10 0 -12 -92 -153 -102 -158 -5 -2 -8 -10 -8 -19 0 -9
-6 -12 -17 -9 -107 32 -260 31 -315 -1 -65 -37 -69 -136 -8 -168 15 -8 74 -21
130 -30 57 -8 105 -17 108 -19 2 -3 0 -15 -4 -28 -4 -13 -7 -26 -6 -30 1 -5
-3 -8 -8 -8 -6 0 -10 -4 -10 -10 0 -5 -8 -19 -17 -30 -15 -18 -30 -20 -116
-20 -116 0 -188 -24 -212 -71 -38 -73 3 -124 130 -160 33 -10 54 -18 47 -18
-7 -1 -10 -5 -7 -11 3 -6 2 -10 -3 -10 -13 0 -78 -156 -87 -209 -5 -31 -13
-45 -30 -53 -27 -12 -40 -41 -54 -118 -10 -56 -27 -109 -100 -305 -36 -95 -60
-156 -101 -250 -13 -30 -40 -127 -66 -235 -7 -30 -36 -140 -64 -245 -96 -357
-110 -415 -125 -548 -9 -72 -22 -159 -30 -192 -7 -33 -18 -103 -24 -155 -6
-52 -16 -131 -22 -175 -30 -247 -39 -819 -14 -915 8 -30 15 -89 15 -130 1
-168 87 -623 159 -830 29 -86 89 -241 155 -405 20 -49 58 -121 84 -160 27 -38
63 -97 80 -130 18 -33 64 -102 102 -154 39 -52 70 -97 70 -101 0 -4 -10 -10
-23 -14 -13 -3 -39 -21 -58 -39 -19 -19 -41 -36 -48 -38 -14 -5 -40 -85 -41
-127 0 -31 49 -99 78 -107 12 -3 22 -10 22 -15 0 -17 231 -115 256 -109 5 2
34 -2 64 -9 30 -6 100 -20 155 -31 55 -11 134 -27 175 -36 41 -9 95 -20 120
-25 104 -19 344 -71 470 -103 74 -19 164 -40 200 -46 36 -7 76 -17 90 -23 14
-6 42 -12 64 -14 21 -2 45 -9 54 -16 8 -7 17 -12 18 -11 2 1 9 1 16 -2 7 -2
31 -6 53 -9 96 -11 190 -41 186 -59 -4 -17 77 -78 132 -98 72 -27 221 -30 307
-6 106 30 135 39 190 57 35 11 116 22 220 29 91 6 233 17 315 23 83 6 397 12
705 13 517 2 665 7 945 35 135 14 236 14 320 1 93 -14 296 -13 365 2 65 15
131 48 182 91 56 48 107 76 174 97 34 10 72 28 86 38 14 11 45 27 69 35 24 8
45 20 47 26 2 5 10 10 18 10 8 0 17 7 20 15 4 8 14 15 24 15 22 0 118 104 137
147 7 18 13 44 13 58 0 14 6 25 13 25 8 0 9 2 1 8 -6 4 -15 23 -19 42 -4 19
-16 42 -26 51 -11 9 -19 24 -19 33 0 9 -8 20 -17 23 -18 7 -63 49 -63 60 0 15
-67 62 -81 57 -11 -3 -27 7 -44 27 -20 24 -29 29 -35 19 -6 -10 -15 -8 -41 11
-19 12 -37 27 -40 32 -4 5 -29 10 -57 12 -75 4 -99 42 -67 108 23 49 111 325
125 392 7 33 18 71 25 86 8 14 28 86 45 160 18 73 45 189 61 257 28 116 58
313 80 517 15 151 22 910 10 1105 -26 403 -45 562 -90 770 -10 47 -30 137 -44
200 -38 172 -125 522 -157 630 -79 265 -244 763 -268 807 -7 12 -12 28 -12 35
0 7 -21 63 -46 123 -25 61 -48 120 -51 132 -3 12 -11 28 -19 34 -8 6 -14 19
-14 29 0 10 -7 31 -15 46 -8 16 -15 39 -15 52 0 34 62 57 203 76 132 18 170
33 192 76 25 48 19 86 -19 128 -34 37 -35 37 -123 40 -98 4 -162 -8 -290 -57
l-82 -30 -21 28 c-24 34 -25 45 -6 60 13 11 120 40 229 61 99 20 155 91 128
162 -31 82 -181 75 -425 -19 l-69 -27 -24 29 c-13 17 -47 64 -75 105 -29 41
-56 79 -61 85 -12 15 -97 146 -97 151 0 9 -134 209 -142 212 -4 2 -8 10 -8 17
0 7 -3 15 -7 17 -5 2 -32 39 -62 83 -30 44 -83 109 -117 145 -87 90 -133 144
-134 153 0 4 -5 7 -11 7 -6 0 -47 36 -91 80 -44 44 -85 80 -91 80 -7 0 -28 14
-47 32 -60 54 -103 68 -215 66 -55 0 -122 -4 -150 -8z m-2340 -229 c3 -5 1
-12 -5 -16 -5 -3 -10 1 -10 9 0 18 6 21 15 7z m-1158 -1827 c-3 -3 -12 -4 -19
-1 -8 3 -5 6 6 6 11 1 17 -2 13 -5z"/>
<path d="M3063 8263 c-18 -7 -16 -23 2 -23 8 0 15 7 15 15 0 8 -1 15 -2 14 -2
0 -9 -3 -15 -6z"/>
</g>
</svg>
